<svg id="svg" xmlns="http://www.w3.org/2000/svg" xmlns:xlink="http://www.w3.org/1999/xlink" width="400" height="237" viewBox="0, 0, 400,237"><g id="svgg"><path id="path0" d="M150.333 0.358 C 43.717 8.701,-23.989 81.800,7.498 154.570 C 24.961 194.928,72.359 225.622,131.667 234.979 C 148.757 237.675,180.910 237.922,197.598 235.486 C 241.379 229.094,273.498 214.316,302.562 187.192 C 306.091 183.899,307.279 183.006,309.494 181.979 C 313.065 180.324,320.055 177.911,320.329 178.238 C 320.450 178.382,321.580 180.075,322.842 182.000 C 328.988 191.380,340.882 199.096,351.422 200.541 L 352.936 200.748 353.314 198.791 C 353.523 197.714,353.763 196.502,353.849 196.097 C 353.983 195.466,353.802 195.308,352.586 194.995 C 341.630 192.170,337.806 190.243,332.500 184.871 C 328.533 180.855,326.752 178.019,323.949 171.264 C 317.038 154.605,318.123 155.771,281.500 125.650 C 256.074 104.738,253.348 102.060,253.337 97.982 C 253.326 93.985,258.871 89.014,263.461 88.907 C 265.795 88.852,266.714 89.336,307.934 112.291 C 319.539 118.754,329.289 123.995,329.600 123.937 C 330.102 123.843,332.571 119.772,332.281 119.517 C 332.218 119.462,325.942 115.931,318.333 111.672 C 310.725 107.413,303.095 103.104,301.378 102.097 L 298.256 100.266 298.465 98.716 C 298.742 96.653,300.269 89.954,300.518 89.704 C 300.934 89.289,306.555 89.052,316.619 89.027 L 327.072 89.000 331.777 91.413 C 340.876 96.080,343.328 99.309,374.498 147.667 C 381.056 157.842,388.142 168.828,390.244 172.082 C 395.313 179.926,396.517 180.868,398.692 178.692 C 400.430 176.955,402.366 180.351,379.392 144.833 C 360.602 115.784,350.478 100.639,347.417 97.000 C 342.235 90.840,335.159 85.859,329.167 84.153 C 326.025 83.258,325.425 82.829,324.359 80.718 C 302.140 36.701,252.159 7.377,188.167 0.812 C 181.942 0.173,156.581 -0.131,150.333 0.358 M186.667 8.001 C 240.702 13.233,287.364 37.129,310.440 71.385 C 313.059 75.274,317.212 82.567,316.953 82.823 C 316.747 83.027,307.172 83.667,304.332 83.667 C 301.906 83.667,301.640 83.605,301.796 83.083 C 303.713 76.684,301.944 71.023,297.500 69.334 C 294.223 68.087,258.125 61.584,246.692 60.179 L 242.551 59.671 240.692 60.521 C 237.955 61.773,235.839 64.175,235.026 66.950 C 233.510 72.125,227.214 102.224,225.809 111.010 L 225.248 114.521 226.094 116.190 C 227.151 118.275,229.525 120.499,231.215 120.987 C 232.504 121.358,261.707 126.739,264.833 127.181 C 267.392 127.542,267.445 127.635,266.157 129.505 C 261.652 136.040,263.379 141.162,272.407 148.043 L 276.346 151.045 274.374 153.230 C 270.518 157.502,269.571 161.371,271.304 165.777 C 272.852 169.713,274.916 171.140,288.324 177.539 L 297.313 181.828 295.907 183.276 C 259.347 220.884,187.357 238.702,123.292 225.997 C 43.363 210.146,-5.790 154.225,10.054 97.167 C 21.793 54.891,68.742 20.572,128.833 10.341 C 145.324 7.534,171.081 6.491,186.667 8.001 M182.749 39.971 C 181.023 40.779,179.855 41.992,178.799 44.072 C 177.337 46.950,177.548 47.740,182.644 58.452 C 201.799 98.722,201.545 140.085,181.894 180.500 C 177.033 190.498,176.938 192.400,181.106 196.242 C 185.721 200.496,190.758 198.745,194.943 191.433 C 213.805 158.471,218.578 114.850,207.521 76.469 C 202.944 60.581,194.507 42.393,190.695 40.197 C 188.985 39.211,184.635 39.088,182.749 39.971 M154.109 55.348 C 149.104 56.338,146.565 60.732,148.206 65.565 C 148.503 66.439,150.209 70.307,151.999 74.160 C 165.762 103.800,165.980 132.795,152.656 161.667 C 147.540 172.754,147.670 172.427,147.668 174.209 C 147.664 178.661,151.303 182.309,155.763 182.326 C 160.966 182.346,164.997 177.072,170.661 162.838 C 181.693 135.112,181.973 103.612,171.426 76.841 C 164.989 60.502,160.439 54.191,155.705 55.037 C 155.592 55.057,154.874 55.197,154.109 55.348 M258.504 67.655 C 297.790 74.273,296.893 74.022,296.563 78.282 C 296.384 80.596,293.206 96.905,292.869 97.242 C 292.791 97.320,290.651 96.192,288.114 94.735 C 281.613 91.003,274.785 87.239,270.856 85.223 L 267.500 83.500 263.482 83.500 C 254.513 83.500,248.167 89.577,248.167 98.167 C 248.167 104.519,250.047 107.095,261.915 117.000 C 265.755 120.204,267.128 121.529,266.685 121.602 C 265.574 121.785,243.084 117.740,236.167 116.113 C 229.996 114.662,230.176 116.042,233.870 98.500 C 239.436 72.070,240.818 66.399,241.802 65.967 C 243.068 65.413,248.371 65.949,258.504 67.655 M121.833 71.521 C 118.705 73.139,116.852 75.985,117.086 78.812 C 117.255 80.844,117.587 81.703,121.655 90.626 C 130.318 109.624,130.135 128.539,121.099 148.166 C 117.248 156.529,117.008 157.144,117.004 158.645 C 116.990 163.658,122.714 167.714,127.808 166.300 C 133.219 164.797,141.700 146.443,143.840 131.601 C 146.683 111.883,141.722 87.682,132.177 74.717 C 129.727 71.388,124.946 69.912,121.833 71.521 M94.621 85.885 C 92.802 86.199,90.212 88.103,89.122 89.926 C 87.024 93.437,87.308 95.322,90.865 101.518 C 94.758 108.298,95.536 111.634,95.242 120.282 C 94.993 127.619,94.850 128.064,89.500 138.226 C 84.496 147.729,93.897 155.923,101.822 148.966 C 111.077 140.839,115.035 118.772,110.006 103.333 C 106.161 91.530,100.318 84.903,94.621 85.885 M277.100 129.876 C 280.331 131.520,310.440 156.699,310.265 157.609 C 310.146 158.227,309.115 158.535,305.068 159.160 C 298.947 160.105,296.077 158.862,284.833 150.393 C 267.928 137.660,267.017 136.281,272.223 131.290 C 274.440 129.164,275.244 128.932,277.100 129.876 M285.918 158.431 C 295.927 165.199,299.032 166.008,308.581 164.337 C 313.920 163.403,314.181 163.587,316.370 169.833 L 317.305 172.500 316.236 173.043 C 314.486 173.932,306.596 176.581,304.431 177.007 C 302.469 177.393,302.350 177.374,299.295 176.161 C 289.800 172.393,278.023 166.266,276.976 164.551 C 275.391 161.950,276.745 157.875,279.833 155.957 C 281.181 155.120,280.778 154.956,285.918 158.431 " stroke="none" fill="#000000" fill-rule="evenodd"></path></g></svg>